# xmcd
#
# Track frame offsets:
#	150
#	2323
#	17289
#	33282
#	48331
#	61897
#	74923
#	86653
#	104865
#	116059
#	129032
#	142838
#	155059
#	167235
#	179310
#	191444
# Disc length: 2756 seconds
# Revision: 7
# Processed by: cddbd v1.5.1PL0 Copyright (c) Steve Scherf et al.
#
# Submitted via: libkcddb 0.10
#
DISCID=d00ac210
DTITLE=Various Artist - Livin' Lovin' Losin' - Songs of The Louvin Brothers
DYEAR=1900
DGENRE=Unknown
TTITLE0=Announcer - Intro to Charlie And Ira
TTITLE1=Joe Nichols and Rhonda Vincent - Cash On The Barrelhead
TTITLE2=Emmylou Harris and Rodney Crowell - My Baby's Gone
TTITLE3=James Taylor and Alison Krauss - How's The World Treating You
TTITLE4=Vince Gill and Terry Clark - I Can't Keep You In Love With Me
TTITLE5=Merle Haggard and Carl Jackson - Must You Throw Dirt In My Face
TTITLE6=Ronnie Dunn and Rebecca Lynn Howard - If I Could Only Win Your Love
TTITLE7=Glen Campbell and Leslie Satcher - When I Would Stop Dreaming
TTITLE8=Kathy Louvin and Pamela Brown Hayes - I Wish You Knew
TTITLE9=Linda Ronstadt and Carl Jackson - The New Partner Waltz
TTITLE10=Patty Loveless and Jon Randall - Are You Teasing Me
TTITLE11=Harley Allen and Dierks Bentley - I Don't Belive You've Met My Baby
TTITLE12=Larry Cordle, Carl Jackson and Jerry Salley - You're Running Wild
TTITLE13=Dolly Parton and Sonya Isaacs - The Angels Rejoiced
TTITLE14=Marty Stuart and Del McCoury - Let Us Travel, Travel On
TTITLE15=Pam Tillis and Johnny Cash With The Jordanaires - Keep Your Eyes On Jesus
EXTD=
EXTT0=
EXTT1=
EXTT2=
EXTT3=
EXTT4=
EXTT5=
EXTT6=
EXTT7=
EXTT8=
EXTT9=
EXTT10=
EXTT11=
EXTT12=
EXTT13=
EXTT14=
EXTT15=
PLAYORDER=
